<?xml version="1.0" encoding="UTF-8"?>
<svg width="69px" height="29px" viewBox="0 0 69 29" version="1.1" xmlns="http://www.w3.org/2000/svg" xmlns:xlink="http://www.w3.org/1999/xlink">
    <title>Logo</title>
    <g id="Logo" stroke="none" stroke-width="1" fill="none" fill-rule="evenodd">
        <g id="==jdk" transform="translate(2.267020, 4.548507)" fill-rule="nonzero">
            <path d="M11.7697517,10.150452 L11.7697517,7.12491846 L0,7.12491846 L0,10.150452 L11.7697517,10.150452 Z M11.7697517,15.8094782 L11.7697517,12.7839446 L0,12.7839446 L0,15.8094782 L11.7697517,15.8094782 Z M28.0822517,10.150452 L28.0822517,7.12491846 L16.3125,7.12491846 L16.3125,10.150452 L28.0822517,10.150452 Z M28.0822517,15.8094782 L28.0822517,12.7839446 L16.3125,12.7839446 L16.3125,15.8094782 L28.0822517,15.8094782 Z" id="==" fill="#DC2626"></path>
            <path d="M33.613625,3.67325342 C34.695999,3.67325342 35.5823525,2.84655833 35.5823525,1.83236539 C35.5823525,0.826695085 34.695999,0 33.613625,0 C32.5397737,0 31.6534202,0.826695085 31.6534202,1.83236539 C31.6534202,2.84655833 32.5397737,3.67325342 33.613625,3.67325342 Z M30.4772973,23.3605281 C33.5624893,23.3605281 35.4374678,22.1332694 35.4374678,19.0992132 L35.4374678,5.36073411 L31.8068275,5.36073411 L31.8068275,19.0395548 C31.8068275,20.0281799 31.3892187,20.5224924 30.2216184,20.5224924 C30.0682111,20.5224924 29.931849,20.5224924 29.7443511,20.5054471 L29.7443511,23.3434829 C30.0085527,23.3520055 30.2216184,23.3605281 30.4772973,23.3605281 Z M43.1590451,18.6645591 C45.2726572,18.6645591 46.3720765,17.4458231 46.8749116,16.3549265 L47.028319,16.3549265 L47.028319,18.4514934 L50.6078235,18.4514934 L50.6078235,0.997147679 L46.9857058,0.997147679 L46.9857058,7.55957258 L46.8749116,7.55957258 C46.3891217,6.49424386 45.3408383,5.19028151 43.1505224,5.19028151 C40.2783962,5.19028151 37.8494467,7.4232105 37.8494467,11.923159 C37.8494467,16.3037907 40.1761247,18.6645591 43.1590451,18.6645591 Z M44.3096001,15.7753876 C42.5283705,15.7753876 41.5567907,14.1901785 41.5567907,11.9061137 C41.5567907,9.63909423 42.5113252,8.07945299 44.3096001,8.07945299 C46.0737844,8.07945299 47.0624095,9.5709132 47.0624095,11.9061137 C47.0624095,14.2413143 46.0567392,15.7753876 44.3096001,15.7753876 Z M57.213036,18.4514934 L57.213036,14.2924501 L58.1931384,13.1759856 L61.7641203,18.4514934 L66.0169125,18.4514934 L60.9118573,11.0282829 L65.7697563,5.36073411 L61.6021903,5.36073411 L57.4090565,10.3294272 L57.213036,10.3294272 L57.213036,0.997147679 L53.5823957,0.997147679 L53.5823957,18.4514934 L57.213036,18.4514934 Z" id="jdk" fill="#000000"></path>
        </g>
    </g>
</svg>
